Coordinates
version=1
nRows=5
nColumns=40
inDegrees=yes

Units are S.I. units (second, meters, Newtons, ...)
Angles are in degrees.

endheader
time	pelvis_tilt	pelvis_list	pelvis_rotation	pelvis_tx	pelvis_ty	pelvis_tz	hip_flexion_r	hip_adduction_r	hip_rotation_r	knee_angle_r	knee_angle_r_beta	ankle_angle_r	subtalar_angle_r	mtp_angle_r	hip_flexion_l	hip_adduction_l	hip_rotation_l	knee_angle_l	knee_angle_l_beta	ankle_angle_l	subtalar_angle_l	mtp_angle_l	lumbar_extension	lumbar_bending	lumbar_rotation	arm_flex_r	arm_add_r	arm_rot_r	elbow_flex_r	pro_sup_r	wrist_flex_r	wrist_dev_r	arm_flex_l	arm_add_l	arm_rot_l	elbow_flex_l	pro_sup_l	wrist_flex_l	wrist_dev_l
      2.19000000	    -22.68325120	      8.06949513	     -5.23887585	     -3.22193325	      0.93417852	      0.39664379	    -10.67623434	     -8.53241804	      8.12491284	     11.24905177	     11.24905177	    -31.78861552	      0.00000000	      0.00000000	     79.09249844	     -4.91458616	     -4.97883169	     93.49118567	     93.49118567	      4.95822009	      0.00000000	      0.00000000	    -16.49035976	    -16.05056094	     -0.26613772	     69.32597637	    -18.75029311	      3.41053703	    131.31105457	     28.79861579	      0.00000000	      0.00000000	    -76.19805812	    -13.16243123	    -39.92491525	     79.27920125	     87.92093101	      0.00000000	      0.00000000
      2.19500000	    -22.68002154	      8.30304302	     -4.29512400	     -3.19201281	      0.93677718	      0.39651424	    -11.82001352	     -8.49853788	      8.38336422	     11.24147912	     11.24147912	    -35.20141481	      0.00000000	      0.00000000	     78.98028047	     -4.21987767	     -5.58011203	     89.38600876	     89.38600876	      5.09575718	      0.00000000	      0.00000000	    -16.52970715	    -16.50560285	     -1.12136805	     67.52484208	    -19.27582872	      3.26277394	    132.42990359	     28.95571301	      0.00000000	      0.00000000	    -76.08083148	    -13.00252792	    -40.39797593	     80.15437361	     87.93287172	      0.00000000	      0.00000000
      2.20000000	    -22.57433361	      8.43440982	     -3.54786175	     -3.16220055	      0.93983097	      0.39648168	    -12.79003974	     -8.32823499	      8.92109261	     11.68880059	     11.68880059	    -38.03153194	      0.00000000	      0.00000000	     78.50541198	     -3.70314310	     -6.18863466	     85.13929682	     85.13929682	      5.17993885	      0.00000000	      0.00000000	    -16.73442703	    -16.85941590	     -1.74827366	     65.39964264	    -19.86140286	      3.13581155	    133.32674323	     29.62620264	      0.00000000	      0.00000000	    -75.55286289	    -12.94997840	    -40.72587488	     80.95358936	     87.91801213	      0.00000000	      0.00000000
      2.20500000	    -22.36827173	      8.45998067	     -3.01438447	     -3.13253171	      0.94326021	      0.39657887	    -13.54733816	     -8.02265184	      9.70978122	     12.70068704	     12.70068704	    -39.91783383	      0.00000000	      0.00000000	     77.69338310	     -3.37985313	     -6.79261260	     80.78721999	     80.78721999	      5.18381747	      0.00000000	      0.00000000	    -17.08861505	    -17.10503368	     -2.11424783	     62.99211383	    -20.49481870	      3.04011398	    134.02495251	     30.17800650	      0.00000000	      0.00000000	    -74.62675972	    -13.02919923	    -40.88445036	     81.67621794	     87.87196335	      0.00000000	      0.00000000
      2.21000000	    -22.09418146	      8.40356245	     -2.70790094	     -3.10308516	      0.94691805	      0.39683505	    -13.98008141	     -7.60768096	     10.63918476	     14.52698786	     14.52698786	    -39.98500952	      0.00000000	      0.00000000	     76.60351289	     -3.25574915	     -7.40682143	     76.36247650	     76.36247650	      5.07430675	      0.00000000	      0.00000000	    -17.54207565	    -17.27041109	     -2.19830780	     60.34920596	    -21.15155607	      2.95713716	    134.47590213	     30.81783946	      0.00000000	      0.00000000	    -73.33860949	    -13.25478065	    -40.85699409	     82.33621487	     87.80411540	      0.00000000	      0.00000000
